<svg width="24" height="24" viewBox="0 0 24 24" fill="none" xmlns="http://www.w3.org/2000/svg">
<path d="M12.5 16.3333H14.0333M19.4 13.2667V11.7333C19.4 11.3267 19.2385 10.9367 18.9509 10.6491C18.6633 10.3615 18.2733 10.2 17.8667 10.2H2.53333C2.12667 10.2 1.73666 10.3615 1.4491 10.6491C1.16155 10.9367 1 11.3267 1 11.7333V20.9333C1 21.34 1.16155 21.73 1.4491 22.0176C1.73666 22.3051 2.12667 22.4667 2.53333 22.4667H17.8667C18.2733 22.4667 18.6633 22.3051 18.9509 22.0176C19.2385 21.73 19.4 21.34 19.4 20.9333V19.4V13.2667ZM19.4 13.2667H13.2667C12.4533 13.2667 11.6733 13.5898 11.0982 14.1649C10.5231 14.74 10.2 15.52 10.2 16.3333C10.2 17.1467 10.5231 17.9267 11.0982 18.5018C11.6733 19.0769 12.4533 19.4 13.2667 19.4H19.4V13.2667ZM19.4 13.2667C20.2133 13.2667 20.9933 13.5898 21.5685 14.1649C22.1436 14.74 22.4667 15.52 22.4667 16.3333C22.4667 17.1467 22.1436 17.9267 21.5685 18.5018C20.9933 19.0769 20.2133 19.4 19.4 19.4V13.2667ZM5.6 10.2V5.6C5.6 4.38 6.08464 3.20998 6.94731 2.34731C7.80998 1.48464 8.98 1 10.2 1C11.42 1 12.59 1.48464 13.4527 2.34731C14.3154 3.20998 14.8 4.38 14.8 5.6V10.2H5.6ZM18.6333 16.3333H20.1667H18.6333ZM15.5667 16.3333H17.1H15.5667Z" stroke="white" stroke-width="2"/>
</svg>
