<svg width="24" height="24" viewBox="0 0 24 24" fill="none" xmlns="http://www.w3.org/2000/svg">
<path d="M14 19C17.771 19 19.657 19 20.828 17.828C22 16.657 22 14.771 22 11C22 7.229 22 5.343 20.828 4.172C19.657 3 17.771 3 14 3H10C6.229 3 4.343 3 3.172 4.172C2 5.343 2 7.229 2 11C2 14.771 2 16.657 3.172 17.828C3.825 18.482 4.7 18.771 6 18.898" stroke="white" stroke-width="2" stroke-linecap="round" stroke-linejoin="round"/>
<path d="M15.207 6.79305C15.1139 6.69982 15.0032 6.62591 14.8815 6.57558C14.7597 6.52525 14.6292 6.49948 14.4974 6.49976C14.3656 6.50004 14.2352 6.52636 14.1136 6.5772C13.9921 6.62805 13.8817 6.70243 13.789 6.79605L9.23901 11.3931C8.96354 11.6712 8.77579 12.0242 8.69901 12.4081L8.51901 13.3041C8.48665 13.4655 8.49467 13.6325 8.54236 13.7901C8.59006 13.9478 8.67595 14.0912 8.79241 14.2077C8.90886 14.3241 9.05228 14.41 9.20991 14.4577C9.36755 14.5054 9.53452 14.5134 9.69601 14.4811L10.592 14.3011C10.9759 14.2243 11.3288 14.0365 11.607 13.7611L16.204 9.21105C16.2976 9.11832 16.372 9.008 16.4229 8.88643C16.4737 8.76487 16.5 8.63445 16.5003 8.50267C16.5006 8.3709 16.4748 8.24037 16.4245 8.11859C16.3741 7.99681 16.3002 7.88618 16.207 7.79305L15.207 6.79305V6.79305Z" stroke="white" stroke-width="2" stroke-linecap="round" stroke-linejoin="round"/>
<path d="M12.5 9.5L13.5 10.5" stroke="white" stroke-width="2"/>
<path d="M14 19C12.764 19 11.402 19.5 10.159 20.145C8.161 21.182 7.162 21.701 6.67 21.37C6.178 21.04 6.271 20.015 6.458 17.966L6.5 17.5" stroke="white" stroke-width="2" stroke-linecap="round"/>
</svg>
