<svg width="23" height="23" viewBox="0 0 23 23" fill="none" xmlns="http://www.w3.org/2000/svg">
<path d="M12.4647 5.80749L11.4999 5.82026C9.12761 5.88147 6.7593 5.59082 4.47217 4.95776V6.29304C6.77067 6.86157 9.13236 7.13424 11.4999 7.10443H11.8897C11.9255 6.8298 12.0099 6.56372 12.1388 6.3186L12.4647 5.80749Z" fill="#343434"/>
<path d="M18.4191 9.83892C16.1641 10.4439 13.8341 10.7235 11.5 10.6695C9.12724 10.73 6.75871 10.4372 4.47218 9.80059V11.1295C6.77015 11.7015 9.13203 11.9764 11.5 11.9473C14.0555 11.9473 17.8441 11.6406 19.8055 10.6695V13.9725C19.5947 14.522 16.5727 15.5378 11.5 15.5378C9.12596 15.5901 6.75741 15.2886 4.47218 14.6434V15.9723C6.77015 16.5443 9.13203 16.8192 11.5 16.79C14.0555 16.79 17.8441 16.4834 19.8055 15.5123V18.7706C19.5819 19.32 16.56 20.3359 11.5 20.3359C6.43996 20.3359 3.38607 19.2945 3.1944 18.7642V4.35726C3.38607 3.83337 6.38885 2.78559 11.5 2.78559C12.4583 2.78559 13.3463 2.82392 14.1513 2.88781L14.8541 1.67392C13.6658 1.55892 12.4902 1.50781 11.5 1.50781C7.94135 1.50781 1.91663 2.10198 1.91663 4.33809V18.7642C1.91663 20.9939 7.94135 21.5945 11.5 21.5945C15.0586 21.5945 21.0833 21.0003 21.0833 18.7642V9.81976L18.4191 9.83892Z" fill="#343434"/>
<path d="M17.1542 0.728269L13.4997 7.02771C13.4147 7.15251 13.3659 7.2984 13.3587 7.44924C13.3515 7.60007 13.3862 7.74995 13.459 7.88226C13.5318 8.01457 13.6398 8.12415 13.771 8.19885C13.9022 8.27356 14.0516 8.31046 14.2025 8.30549H21.5178C21.6687 8.31046 21.8181 8.27356 21.9493 8.19885C22.0805 8.12415 22.1885 8.01457 22.2613 7.88226C22.3341 7.74995 22.3688 7.60007 22.3616 7.44924C22.3544 7.2984 22.3056 7.15251 22.2206 7.02771L18.5661 0.728269C18.4941 0.604998 18.391 0.502748 18.2671 0.43169C18.1432 0.360631 18.0029 0.323242 17.8601 0.323242C17.7174 0.323242 17.5771 0.360631 17.4532 0.43169C17.3293 0.502748 17.2262 0.604998 17.1542 0.728269Z" fill="#343434"/>
</svg>
