<svg width="219" height="18" viewBox="0 0 219 18" fill="none" xmlns="http://www.w3.org/2000/svg">
<path opacity="0.7" d="M31.116 10.304L29.38 11.9V14H28.386V3.612H29.38V10.654L33.776 6.636H35.008L31.858 9.646L35.302 14H34.084L31.116 10.304ZM39.2335 6.58C40.1948 6.58 40.9322 6.82267 41.4455 7.308C41.9588 7.784 42.2155 8.49333 42.2155 9.436V14H41.2635V12.852C41.0395 13.2347 40.7082 13.5333 40.2695 13.748C39.8402 13.9627 39.3268 14.07 38.7295 14.07C37.9082 14.07 37.2548 13.874 36.7695 13.482C36.2842 13.09 36.0415 12.572 36.0415 11.928C36.0415 11.3027 36.2655 10.7987 36.7135 10.416C37.1708 10.0333 37.8942 9.842 38.8835 9.842H41.2215V9.394C41.2215 8.75933 41.0442 8.27867 40.6895 7.952C40.3348 7.616 39.8168 7.448 39.1355 7.448C38.6688 7.448 38.2208 7.52733 37.7915 7.686C37.3622 7.83533 36.9935 8.04533 36.6855 8.316L36.2375 7.574C36.6108 7.25667 37.0588 7.014 37.5815 6.846C38.1042 6.66867 38.6548 6.58 39.2335 6.58ZM38.8835 13.286C39.4435 13.286 39.9242 13.16 40.3255 12.908C40.7268 12.6467 41.0255 12.2733 41.2215 11.788V10.584H38.9115C37.6515 10.584 37.0215 11.0227 37.0215 11.9C37.0215 12.3293 37.1848 12.67 37.5115 12.922C37.8382 13.1647 38.2955 13.286 38.8835 13.286ZM43.8233 16.786C43.5153 16.786 43.226 16.744 42.9553 16.66C42.6753 16.5853 42.4466 16.4687 42.2693 16.31L42.6193 15.554C42.9086 15.806 43.2913 15.932 43.7673 15.932C44.1593 15.932 44.458 15.8153 44.6633 15.582C44.878 15.3487 44.9853 15.0033 44.9853 14.546V6.636H45.9793V14.546C45.9793 15.2367 45.7926 15.7827 45.4193 16.184C45.046 16.5853 44.514 16.786 43.8233 16.786ZM45.4893 5.012C45.284 5.012 45.1113 4.942 44.9713 4.802C44.8313 4.662 44.7613 4.494 44.7613 4.298C44.7613 4.11133 44.8313 3.948 44.9713 3.808C45.1113 3.668 45.284 3.598 45.4893 3.598C45.6946 3.598 45.8673 3.668 46.0073 3.808C46.1473 3.93867 46.2173 4.09733 46.2173 4.284C46.2173 4.48933 46.1473 4.662 46.0073 4.802C45.8673 4.942 45.6946 5.012 45.4893 5.012ZM51.7671 14.07C51.0578 14.07 50.4184 13.9113 49.8491 13.594C49.2798 13.2673 48.8318 12.8193 48.5051 12.25C48.1784 11.6807 48.0151 11.0367 48.0151 10.318C48.0151 9.59933 48.1784 8.95533 48.5051 8.386C48.8318 7.81667 49.2798 7.37333 49.8491 7.056C50.4184 6.73867 51.0578 6.58 51.7671 6.58C52.4764 6.58 53.1158 6.73867 53.6851 7.056C54.2544 7.37333 54.6978 7.81667 55.0151 8.386C55.3418 8.95533 55.5051 9.59933 55.5051 10.318C55.5051 11.0367 55.3418 11.6807 55.0151 12.25C54.6978 12.8193 54.2544 13.2673 53.6851 13.594C53.1158 13.9113 52.4764 14.07 51.7671 14.07ZM51.7671 13.188C52.2898 13.188 52.7564 13.0713 53.1671 12.838C53.5871 12.5953 53.9138 12.2547 54.1471 11.816C54.3804 11.3773 54.4971 10.878 54.4971 10.318C54.4971 9.758 54.3804 9.25867 54.1471 8.82C53.9138 8.38133 53.5871 8.04533 53.1671 7.812C52.7564 7.56933 52.2898 7.448 51.7671 7.448C51.2444 7.448 50.7731 7.56933 50.3531 7.812C49.9424 8.04533 49.6158 8.38133 49.3731 8.82C49.1398 9.25867 49.0231 9.758 49.0231 10.318C49.0231 10.878 49.1398 11.3773 49.3731 11.816C49.6158 12.2547 49.9424 12.5953 50.3531 12.838C50.7731 13.0713 51.2444 13.188 51.7671 13.188ZM61.3284 6.58C62.0191 6.58 62.6444 6.73867 63.2044 7.056C63.7644 7.364 64.2031 7.80267 64.5204 8.372C64.8378 8.94133 64.9964 9.59 64.9964 10.318C64.9964 11.0553 64.8378 11.7087 64.5204 12.278C64.2031 12.8473 63.7644 13.2907 63.2044 13.608C62.6538 13.916 62.0284 14.07 61.3284 14.07C60.7311 14.07 60.1898 13.9487 59.7044 13.706C59.2284 13.454 58.8364 13.09 58.5284 12.614V16.716H57.5344V6.636H58.4864V8.092C58.7851 7.60667 59.1771 7.23333 59.6624 6.972C60.1571 6.71067 60.7124 6.58 61.3284 6.58ZM61.2584 13.188C61.7718 13.188 62.2384 13.0713 62.6584 12.838C63.0784 12.5953 63.4051 12.2547 63.6384 11.816C63.8811 11.3773 64.0024 10.878 64.0024 10.318C64.0024 9.758 63.8811 9.26333 63.6384 8.834C63.4051 8.39533 63.0784 8.05467 62.6584 7.812C62.2384 7.56933 61.7718 7.448 61.2584 7.448C60.7358 7.448 60.2644 7.56933 59.8444 7.812C59.4338 8.05467 59.1071 8.39533 58.8644 8.834C58.6311 9.26333 58.5144 9.758 58.5144 10.318C58.5144 10.878 58.6311 11.3773 58.8644 11.816C59.1071 12.2547 59.4338 12.5953 59.8444 12.838C60.2644 13.0713 60.7358 13.188 61.2584 13.188ZM73.4347 10.626H67.2747C67.3307 11.3913 67.6247 12.012 68.1567 12.488C68.6887 12.9547 69.3607 13.188 70.1727 13.188C70.6301 13.188 71.0501 13.1087 71.4327 12.95C71.8154 12.782 72.1467 12.5393 72.4267 12.222L72.9867 12.866C72.6601 13.258 72.2494 13.5567 71.7547 13.762C71.2694 13.9673 70.7327 14.07 70.1447 14.07C69.3887 14.07 68.7167 13.9113 68.1287 13.594C67.5501 13.2673 67.0974 12.8193 66.7707 12.25C66.4441 11.6807 66.2807 11.0367 66.2807 10.318C66.2807 9.59933 66.4347 8.95533 66.7427 8.386C67.0601 7.81667 67.4894 7.37333 68.0307 7.056C68.5814 6.73867 69.1974 6.58 69.8787 6.58C70.5601 6.58 71.1714 6.73867 71.7127 7.056C72.2541 7.37333 72.6787 7.81667 72.9867 8.386C73.2947 8.946 73.4487 9.59 73.4487 10.318L73.4347 10.626ZM69.8787 7.434C69.1694 7.434 68.5721 7.66267 68.0867 8.12C67.6107 8.568 67.3401 9.156 67.2747 9.884H72.4967C72.4314 9.156 72.1561 8.568 71.6707 8.12C71.1947 7.66267 70.5974 7.434 69.8787 7.434ZM77.3899 8.218C78.8086 8.218 79.8399 8.47467 80.4839 8.988C81.1373 9.492 81.4639 10.2013 81.4639 11.116C81.4639 11.6853 81.3286 12.194 81.0579 12.642C80.7966 13.09 80.3999 13.4447 79.8679 13.706C79.3359 13.958 78.6826 14.084 77.9079 14.084C77.2079 14.084 76.5406 13.972 75.9059 13.748C75.2806 13.5147 74.7766 13.2067 74.3939 12.824L74.8839 12.026C75.2106 12.362 75.6399 12.6373 76.1719 12.852C76.7039 13.0573 77.2779 13.16 77.8939 13.16C78.7059 13.16 79.3313 12.978 79.7699 12.614C80.2179 12.25 80.4419 11.7647 80.4419 11.158C80.4419 10.486 80.1899 9.97733 79.6859 9.632C79.1913 9.28667 78.3513 9.114 77.1659 9.114H75.0799L75.5839 4.2H80.9459V5.096H76.4659L76.1299 8.218H77.3899ZM85.4596 4.2V14H84.4516V5.096H82.1416V4.2H85.4596ZM93.4162 8.862C94.0322 9.06733 94.5036 9.37533 94.8302 9.786C95.1662 10.1967 95.3342 10.6913 95.3342 11.27C95.3342 11.8393 95.1802 12.3387 94.8722 12.768C94.5642 13.188 94.1209 13.5147 93.5422 13.748C92.9729 13.972 92.3009 14.084 91.5262 14.084C90.3502 14.084 89.4262 13.832 88.7542 13.328C88.0822 12.824 87.7462 12.138 87.7462 11.27C87.7462 10.682 87.9049 10.1873 88.2222 9.786C88.5489 9.37533 89.0202 9.06733 89.6362 8.862C89.1322 8.666 88.7496 8.386 88.4882 8.022C88.2269 7.64867 88.0962 7.21 88.0962 6.706C88.0962 5.91267 88.4042 5.28267 89.0202 4.816C89.6456 4.34933 90.4809 4.116 91.5262 4.116C92.2169 4.116 92.8189 4.22333 93.3322 4.438C93.8549 4.64333 94.2609 4.942 94.5502 5.334C94.8396 5.726 94.9842 6.18333 94.9842 6.706C94.9842 7.21 94.8489 7.64867 94.5782 8.022C94.3076 8.386 93.9202 8.666 93.4162 8.862ZM89.1042 6.734C89.1042 7.27533 89.3189 7.70467 89.7482 8.022C90.1776 8.33933 90.7702 8.498 91.5262 8.498C92.2822 8.498 92.8749 8.33933 93.3042 8.022C93.7429 7.70467 93.9622 7.28 93.9622 6.748C93.9622 6.19733 93.7382 5.76333 93.2902 5.446C92.8516 5.12867 92.2636 4.97 91.5262 4.97C90.7796 4.97 90.1869 5.12867 89.7482 5.446C89.3189 5.76333 89.1042 6.19267 89.1042 6.734ZM91.5262 13.23C92.3942 13.23 93.0709 13.0527 93.5562 12.698C94.0509 12.3433 94.2982 11.8627 94.2982 11.256C94.2982 10.6493 94.0509 10.1733 93.5562 9.828C93.0709 9.47333 92.3942 9.296 91.5262 9.296C90.6676 9.296 89.9909 9.47333 89.4962 9.828C89.0109 10.1733 88.7682 10.6493 88.7682 11.256C88.7682 11.872 89.0109 12.3573 89.4962 12.712C89.9816 13.0573 90.6582 13.23 91.5262 13.23ZM103.422 13.104V14H96.548V13.286L100.622 9.296C101.135 8.792 101.481 8.358 101.658 7.994C101.845 7.62067 101.938 7.24733 101.938 6.874C101.938 6.29533 101.737 5.84733 101.336 5.53C100.944 5.20333 100.379 5.04 99.642 5.04C98.494 5.04 97.6026 5.404 96.968 6.132L96.254 5.516C96.6366 5.068 97.122 4.72267 97.71 4.48C98.3073 4.23733 98.9793 4.116 99.726 4.116C100.725 4.116 101.513 4.354 102.092 4.83C102.68 5.29667 102.974 5.94067 102.974 6.762C102.974 7.266 102.862 7.75133 102.638 8.218C102.414 8.68467 101.989 9.22133 101.364 9.828L98.032 13.104H103.422ZM111.225 4.116C112.476 4.116 113.591 4.37733 114.571 4.9C115.56 5.41333 116.33 6.14133 116.881 7.084C117.432 8.01733 117.707 9.086 117.707 10.29C117.707 11.4753 117.502 12.404 117.091 13.076C116.68 13.7387 116.111 14.07 115.383 14.07C114.926 14.07 114.552 13.9347 114.263 13.664C113.983 13.3933 113.829 13.02 113.801 12.544C113.521 13.0293 113.138 13.4073 112.653 13.678C112.168 13.9393 111.617 14.07 111.001 14.07C110.348 14.07 109.755 13.916 109.223 13.608C108.7 13.2907 108.285 12.8567 107.977 12.306C107.678 11.7553 107.529 11.1347 107.529 10.444C107.529 9.75333 107.678 9.13733 107.977 8.596C108.285 8.04533 108.7 7.616 109.223 7.308C109.755 7 110.348 6.846 111.001 6.846C111.598 6.846 112.135 6.97667 112.611 7.238C113.096 7.49 113.484 7.84933 113.773 8.316V6.902H114.683V12.208C114.683 12.5813 114.762 12.852 114.921 13.02C115.08 13.188 115.29 13.272 115.551 13.272C115.99 13.272 116.335 13.0107 116.587 12.488C116.848 11.9653 116.979 11.2373 116.979 10.304C116.979 9.22133 116.736 8.26933 116.251 7.448C115.766 6.61733 115.084 5.97333 114.207 5.516C113.339 5.05867 112.345 4.83 111.225 4.83C110.096 4.83 109.092 5.068 108.215 5.544C107.347 6.01067 106.67 6.67333 106.185 7.532C105.7 8.38133 105.457 9.352 105.457 10.444C105.457 11.536 105.695 12.5113 106.171 13.37C106.656 14.2287 107.328 14.896 108.187 15.372C109.055 15.848 110.049 16.086 111.169 16.086C111.608 16.086 112.065 16.0347 112.541 15.932C113.026 15.8293 113.465 15.6753 113.857 15.47L114.095 16.156C113.694 16.3613 113.227 16.52 112.695 16.632C112.172 16.744 111.664 16.8 111.169 16.8C109.9 16.8 108.775 16.5293 107.795 15.988C106.815 15.4467 106.05 14.6953 105.499 13.734C104.958 12.7633 104.687 11.6667 104.687 10.444C104.687 9.212 104.962 8.12 105.513 7.168C106.064 6.20667 106.834 5.46 107.823 4.928C108.822 4.38667 109.956 4.116 111.225 4.116ZM111.127 13.258C111.631 13.258 112.084 13.1413 112.485 12.908C112.886 12.6747 113.204 12.348 113.437 11.928C113.67 11.4987 113.787 11.004 113.787 10.444C113.787 9.89333 113.67 9.408 113.437 8.988C113.204 8.55867 112.886 8.232 112.485 8.008C112.084 7.77467 111.631 7.658 111.127 7.658C110.614 7.658 110.152 7.77467 109.741 8.008C109.34 8.24133 109.022 8.568 108.789 8.988C108.565 9.408 108.453 9.89333 108.453 10.444C108.453 10.9947 108.565 11.4847 108.789 11.914C109.022 12.334 109.34 12.6653 109.741 12.908C110.152 13.1413 110.614 13.258 111.127 13.258ZM126.446 6.636V14H125.494V12.656C125.232 13.104 124.873 13.454 124.416 13.706C123.958 13.9487 123.436 14.07 122.848 14.07C121.886 14.07 121.126 13.804 120.566 13.272C120.015 12.7307 119.74 11.942 119.74 10.906V6.636H120.734V10.808C120.734 11.5827 120.925 12.1707 121.308 12.572C121.69 12.9733 122.236 13.174 122.946 13.174C123.72 13.174 124.332 12.9407 124.78 12.474C125.228 11.998 125.452 11.34 125.452 10.5V6.636H126.446ZM138.414 6.58C139.338 6.58 140.061 6.846 140.584 7.378C141.116 7.91 141.382 8.694 141.382 9.73V14H140.388V9.828C140.388 9.06267 140.201 8.47933 139.828 8.078C139.464 7.67667 138.946 7.476 138.274 7.476C137.508 7.476 136.906 7.714 136.468 8.19C136.029 8.65667 135.81 9.30533 135.81 10.136V14H134.816V9.828C134.816 9.06267 134.629 8.47933 134.256 8.078C133.892 7.67667 133.369 7.476 132.688 7.476C131.932 7.476 131.33 7.714 130.882 8.19C130.443 8.65667 130.224 9.30533 130.224 10.136V14H129.23V6.636H130.182V7.98C130.443 7.532 130.807 7.18667 131.274 6.944C131.74 6.70133 132.277 6.58 132.884 6.58C133.5 6.58 134.032 6.71067 134.48 6.972C134.937 7.23333 135.278 7.62067 135.502 8.134C135.772 7.64867 136.16 7.27067 136.664 7C137.177 6.72 137.76 6.58 138.414 6.58ZM153.261 6.58C154.185 6.58 154.909 6.846 155.431 7.378C155.963 7.91 156.229 8.694 156.229 9.73V14H155.235V9.828C155.235 9.06267 155.049 8.47933 154.675 8.078C154.311 7.67667 153.793 7.476 153.121 7.476C152.356 7.476 151.754 7.714 151.315 8.19C150.877 8.65667 150.657 9.30533 150.657 10.136V14H149.663V9.828C149.663 9.06267 149.477 8.47933 149.103 8.078C148.739 7.67667 148.217 7.476 147.535 7.476C146.779 7.476 146.177 7.714 145.729 8.19C145.291 8.65667 145.071 9.30533 145.071 10.136V14H144.077V6.636H145.029V7.98C145.291 7.532 145.655 7.18667 146.121 6.944C146.588 6.70133 147.125 6.58 147.731 6.58C148.347 6.58 148.879 6.71067 149.327 6.972C149.785 7.23333 150.125 7.62067 150.349 8.134C150.62 7.64867 151.007 7.27067 151.511 7C152.025 6.72 152.608 6.58 153.261 6.58ZM161.962 14.07C161.253 14.07 160.614 13.9113 160.044 13.594C159.475 13.2673 159.027 12.8193 158.7 12.25C158.374 11.6807 158.21 11.0367 158.21 10.318C158.21 9.59933 158.374 8.95533 158.7 8.386C159.027 7.81667 159.475 7.37333 160.044 7.056C160.614 6.73867 161.253 6.58 161.962 6.58C162.672 6.58 163.311 6.73867 163.88 7.056C164.45 7.37333 164.893 7.81667 165.21 8.386C165.537 8.95533 165.7 9.59933 165.7 10.318C165.7 11.0367 165.537 11.6807 165.21 12.25C164.893 12.8193 164.45 13.2673 163.88 13.594C163.311 13.9113 162.672 14.07 161.962 14.07ZM161.962 13.188C162.485 13.188 162.952 13.0713 163.362 12.838C163.782 12.5953 164.109 12.2547 164.342 11.816C164.576 11.3773 164.692 10.878 164.692 10.318C164.692 9.758 164.576 9.25867 164.342 8.82C164.109 8.38133 163.782 8.04533 163.362 7.812C162.952 7.56933 162.485 7.448 161.962 7.448C161.44 7.448 160.968 7.56933 160.548 7.812C160.138 8.04533 159.811 8.38133 159.568 8.82C159.335 9.25867 159.218 9.758 159.218 10.318C159.218 10.878 159.335 11.3773 159.568 11.816C159.811 12.2547 160.138 12.5953 160.548 12.838C160.968 13.0713 161.44 13.188 161.962 13.188ZM171.482 6.58C172.406 6.58 173.138 6.85067 173.68 7.392C174.23 7.924 174.506 8.70333 174.506 9.73V14H173.512V9.828C173.512 9.06267 173.32 8.47933 172.938 8.078C172.555 7.67667 172.009 7.476 171.3 7.476C170.506 7.476 169.876 7.714 169.41 8.19C168.952 8.65667 168.724 9.30533 168.724 10.136V14H167.73V3.612H168.724V7.924C168.994 7.49467 169.368 7.16333 169.844 6.93C170.32 6.69667 170.866 6.58 171.482 6.58ZM177.302 14.07C177.097 14.07 176.92 13.9953 176.77 13.846C176.63 13.6967 176.56 13.5147 176.56 13.3C176.56 13.0853 176.63 12.908 176.77 12.768C176.92 12.6187 177.097 12.544 177.302 12.544C177.508 12.544 177.685 12.6187 177.834 12.768C177.984 12.908 178.058 13.0853 178.058 13.3C178.058 13.5147 177.984 13.6967 177.834 13.846C177.685 13.9953 177.508 14.07 177.302 14.07ZM183.018 14.07C182.29 14.07 181.637 13.9113 181.058 13.594C180.489 13.2767 180.041 12.8333 179.714 12.264C179.387 11.6853 179.224 11.0367 179.224 10.318C179.224 9.59933 179.387 8.95533 179.714 8.386C180.041 7.81667 180.489 7.37333 181.058 7.056C181.637 6.73867 182.29 6.58 183.018 6.58C183.653 6.58 184.217 6.706 184.712 6.958C185.216 7.20067 185.613 7.56 185.902 8.036L185.16 8.54C184.917 8.176 184.609 7.90533 184.236 7.728C183.863 7.54133 183.457 7.448 183.018 7.448C182.486 7.448 182.005 7.56933 181.576 7.812C181.156 8.04533 180.825 8.38133 180.582 8.82C180.349 9.25867 180.232 9.758 180.232 10.318C180.232 10.8873 180.349 11.3913 180.582 11.83C180.825 12.2593 181.156 12.5953 181.576 12.838C182.005 13.0713 182.486 13.188 183.018 13.188C183.457 13.188 183.863 13.0993 184.236 12.922C184.609 12.7447 184.917 12.474 185.16 12.11L185.902 12.614C185.613 13.09 185.216 13.454 184.712 13.706C184.208 13.9487 183.643 14.07 183.018 14.07ZM190.742 14.07C190.032 14.07 189.393 13.9113 188.824 13.594C188.254 13.2673 187.806 12.8193 187.48 12.25C187.153 11.6807 186.99 11.0367 186.99 10.318C186.99 9.59933 187.153 8.95533 187.48 8.386C187.806 7.81667 188.254 7.37333 188.824 7.056C189.393 6.73867 190.032 6.58 190.742 6.58C191.451 6.58 192.09 6.73867 192.66 7.056C193.229 7.37333 193.672 7.81667 193.99 8.386C194.316 8.95533 194.48 9.59933 194.48 10.318C194.48 11.0367 194.316 11.6807 193.99 12.25C193.672 12.8193 193.229 13.2673 192.66 13.594C192.09 13.9113 191.451 14.07 190.742 14.07ZM190.742 13.188C191.264 13.188 191.731 13.0713 192.142 12.838C192.562 12.5953 192.888 12.2547 193.122 11.816C193.355 11.3773 193.472 10.878 193.472 10.318C193.472 9.758 193.355 9.25867 193.122 8.82C192.888 8.38133 192.562 8.04533 192.142 7.812C191.731 7.56933 191.264 7.448 190.742 7.448C190.219 7.448 189.748 7.56933 189.328 7.812C188.917 8.04533 188.59 8.38133 188.348 8.82C188.114 9.25867 187.998 9.758 187.998 10.318C187.998 10.878 188.114 11.3773 188.348 11.816C188.59 12.2547 188.917 12.5953 189.328 12.838C189.748 13.0713 190.219 13.188 190.742 13.188ZM205.693 6.58C206.617 6.58 207.34 6.846 207.863 7.378C208.395 7.91 208.661 8.694 208.661 9.73V14H207.667V9.828C207.667 9.06267 207.48 8.47933 207.107 8.078C206.743 7.67667 206.225 7.476 205.553 7.476C204.788 7.476 204.186 7.714 203.747 8.19C203.308 8.65667 203.089 9.30533 203.089 10.136V14H202.095V9.828C202.095 9.06267 201.908 8.47933 201.535 8.078C201.171 7.67667 200.648 7.476 199.967 7.476C199.211 7.476 198.609 7.714 198.161 8.19C197.722 8.65667 197.503 9.30533 197.503 10.136V14H196.509V6.636H197.461V7.98C197.722 7.532 198.086 7.18667 198.553 6.944C199.02 6.70133 199.556 6.58 200.163 6.58C200.779 6.58 201.311 6.71067 201.759 6.972C202.216 7.23333 202.557 7.62067 202.781 8.134C203.052 7.64867 203.439 7.27067 203.943 7C204.456 6.72 205.04 6.58 205.693 6.58Z" fill="#030229"/>
<g opacity="0.3">
<path fill-rule="evenodd" clip-rule="evenodd" d="M11.9512 3C13.024 3 14.056 3.44167 14.8152 4.23417C15.5752 5.025 16 6.09167 16 7.20833V13.7917C16 16.1167 14.184 18 11.9512 18H4.048C1.8152 18 0 16.1167 0 13.7917V7.20833C0 4.88333 1.8072 3 4.048 3H11.9512ZM13.224 8.44987L13.288 8.3832C13.4792 8.14153 13.4792 7.79153 13.2792 7.54987C13.168 7.4257 13.0152 7.34987 12.856 7.3332C12.688 7.32403 12.528 7.3832 12.4072 7.49987L8.79999 10.4999C8.33599 10.9007 7.67119 10.9007 7.19999 10.4999L3.59999 7.49987C3.35119 7.3082 3.00719 7.3332 2.79999 7.5582C2.58399 7.7832 2.55999 8.14153 2.74319 8.39153L2.84799 8.49987L6.48799 11.4582C6.93599 11.8249 7.47919 12.0249 8.04799 12.0249C8.61519 12.0249 9.16799 11.8249 9.61519 11.4582L13.224 8.44987Z" fill="#030229"/>
</g>
</svg>
