<svg width="19" height="17" viewBox="0 0 19 17" fill="none" xmlns="http://www.w3.org/2000/svg">
<g opacity="0.7">
<path fill-rule="evenodd" clip-rule="evenodd" d="M14.668 3.42751C14.706 3.49147 14.7725 3.53716 14.858 3.53716C17.138 3.53716 19 5.32821 19 7.52133V12.9493C19 15.1424 17.138 16.9335 14.858 16.9335H4.142C1.8525 16.9335 0 15.1424 0 12.9493V7.52133C0 5.32821 1.8525 3.53716 4.142 3.53716C4.218 3.53716 4.294 3.50061 4.3225 3.42751L4.3795 3.31785C4.41226 3.25145 4.44588 3.18325 4.48002 3.11402C4.72304 2.62109 4.9919 2.07576 5.1585 1.75525C5.5955 0.932835 6.3365 0.475935 7.258 0.466797H11.7325C12.654 0.475935 13.4045 0.932835 13.8415 1.75525C13.9911 2.0431 14.2191 2.50675 14.4388 2.95364C14.4841 3.04586 14.5291 3.13737 14.573 3.22647L14.668 3.42751ZM13.9744 6.93631C13.9744 7.39321 14.3544 7.75873 14.8294 7.75873C15.3044 7.75873 15.6939 7.39321 15.6939 6.93631C15.6939 6.47941 15.3044 6.10475 14.8294 6.10475C14.3544 6.10475 13.9744 6.47941 13.9744 6.93631ZM7.85625 8.35281C8.30275 7.92332 8.88225 7.69487 9.49975 7.69487C10.1172 7.69487 10.6967 7.92332 11.1337 8.34367C11.5707 8.76402 11.8082 9.32143 11.8082 9.9154C11.7987 11.1399 10.7727 12.1359 9.49975 12.1359C8.88225 12.1359 8.30275 11.9075 7.86575 11.4871C7.42875 11.0668 7.19125 10.5094 7.19125 9.9154V9.90627C7.18175 9.33057 7.41925 8.77315 7.85625 8.35281ZM12.1316 12.4557C11.4571 13.1045 10.5261 13.5066 9.50006 13.5066C8.50255 13.5066 7.57155 13.1319 6.85905 12.4557C6.15605 11.7704 5.76655 10.8749 5.76655 9.91537C5.75705 8.96502 6.14655 8.0695 6.84955 7.38415C7.56205 6.6988 8.50255 6.32414 9.50006 6.32414C10.4976 6.32414 11.4381 6.6988 12.1411 7.37501C12.8441 8.06036 13.2336 8.96502 13.2336 9.91537C13.2241 10.9114 12.8061 11.8069 12.1316 12.4557Z" fill="white"/>
</g>
</svg>
