<svg width="25" height="26" viewBox="0 0 25 26" fill="none" xmlns="http://www.w3.org/2000/svg">
<rect opacity="0.15" y="0.444824" width="25" height="24.8964" rx="12.4482" fill="#A5A5A5"/>
<rect x="16.5179" width="6.69643" height="6.66867" rx="3.33434" fill="#53B9EA"/>
<path d="M12.5 18.8208C13.1548 18.8208 13.6905 18.2873 13.6905 17.6352H11.3095C11.3095 17.9496 11.435 18.2512 11.6582 18.4735C11.8815 18.6958 12.1843 18.8208 12.5 18.8208ZM16.0714 15.2641V12.3003C16.0714 10.4805 15.0952 8.95704 13.3929 8.55396V8.15088C13.3929 7.65888 12.9941 7.26172 12.5 7.26172C12.006 7.26172 11.6071 7.65888 11.6071 8.15088V8.55396C9.89881 8.95704 8.92857 10.4745 8.92857 12.3003V15.2641L7.7381 16.4497V17.0424H17.2619V16.4497L16.0714 15.2641Z" fill="#828282"/>
</svg>
