<svg width="252" height="236" viewBox="0 0 252 236" fill="none" xmlns="http://www.w3.org/2000/svg">
<path opacity="0.7" d="M214.336 207.072C214.184 207.08 214.068 207.04 213.988 206.952C213.9 206.864 213.856 206.756 213.856 206.628C213.856 206.532 213.888 206.448 213.952 206.376C214.008 206.296 214.1 206.248 214.228 206.232L214.6 206.208C215.008 206.176 215.32 206.036 215.536 205.788C215.752 205.532 215.86 205.184 215.86 204.744V198.96C215.86 198.624 216.024 198.456 216.352 198.456C216.68 198.456 216.844 198.624 216.844 198.96V204.756C216.844 205.452 216.664 205.996 216.304 206.388C215.944 206.772 215.42 206.988 214.732 207.036L214.336 207.072ZM220.867 207.108C219.467 207.108 218.767 206.336 218.767 204.792V201.576C218.767 201.248 218.927 201.084 219.247 201.084C219.575 201.084 219.739 201.248 219.739 201.576V204.78C219.739 205.3 219.843 205.684 220.051 205.932C220.267 206.18 220.603 206.304 221.059 206.304C221.555 206.304 221.959 206.14 222.271 205.812C222.583 205.476 222.739 205.032 222.739 204.48V201.576C222.739 201.248 222.903 201.084 223.231 201.084C223.551 201.084 223.711 201.248 223.711 201.576V206.58C223.711 206.916 223.555 207.084 223.243 207.084C222.923 207.084 222.763 206.916 222.763 206.58V206.016C222.579 206.368 222.319 206.64 221.983 206.832C221.655 207.016 221.283 207.108 220.867 207.108ZM226.009 207.084C225.689 207.084 225.529 206.916 225.529 206.58V201.576C225.529 201.248 225.685 201.084 225.997 201.084C226.317 201.084 226.477 201.248 226.477 201.576V202.164C226.669 201.796 226.941 201.52 227.293 201.336C227.645 201.152 228.041 201.06 228.481 201.06C229.865 201.06 230.557 201.828 230.557 203.364V206.58C230.557 206.916 230.397 207.084 230.077 207.084C229.749 207.084 229.585 206.916 229.585 206.58V203.424C229.585 202.88 229.477 202.484 229.261 202.236C229.053 201.98 228.717 201.852 228.253 201.852C227.717 201.852 227.289 202.02 226.969 202.356C226.657 202.684 226.501 203.124 226.501 203.676V206.58C226.501 206.916 226.337 207.084 226.009 207.084Z" fill="#030229"/>
<path opacity="0.2" d="M219 188.969L218.493 64.9404C218.483 62.5118 220.444 60.528 222.873 60.5096V60.5096C225.301 60.4911 227.278 62.4449 227.288 64.8735L227.795 188.902L219 188.969Z" fill="#FF8F6B"/>
<path opacity="0.7" d="M174.524 206.719C174.22 206.719 174.068 206.559 174.068 206.239V198.571C174.068 198.251 174.22 198.091 174.524 198.091C174.652 198.091 174.752 198.119 174.824 198.175C174.904 198.223 174.976 198.307 175.04 198.427L178.148 204.283L181.244 198.427C181.308 198.307 181.376 198.223 181.448 198.175C181.52 198.119 181.624 198.091 181.76 198.091C182.056 198.091 182.204 198.251 182.204 198.571V206.239C182.204 206.559 182.052 206.719 181.748 206.719C181.444 206.719 181.292 206.559 181.292 206.239V200.023L178.58 205.123C178.524 205.227 178.464 205.303 178.4 205.351C178.344 205.391 178.26 205.411 178.148 205.411C178.036 205.411 177.948 205.387 177.884 205.339C177.82 205.291 177.764 205.219 177.716 205.123L174.968 200.035V206.239C174.968 206.559 174.82 206.719 174.524 206.719ZM186.014 206.743C185.614 206.743 185.254 206.667 184.934 206.515C184.622 206.355 184.374 206.139 184.19 205.867C184.006 205.595 183.914 205.291 183.914 204.955C183.914 204.531 184.022 204.195 184.238 203.947C184.462 203.699 184.826 203.523 185.33 203.419C185.842 203.307 186.538 203.251 187.418 203.251H187.802V202.879C187.802 202.383 187.698 202.027 187.49 201.811C187.29 201.587 186.966 201.475 186.518 201.475C186.238 201.475 185.954 201.511 185.666 201.583C185.386 201.655 185.094 201.771 184.79 201.931C184.654 202.003 184.538 202.019 184.442 201.979C184.354 201.931 184.29 201.859 184.25 201.763C184.218 201.659 184.218 201.555 184.25 201.451C184.29 201.339 184.37 201.255 184.49 201.199C184.834 201.023 185.178 200.895 185.522 200.815C185.874 200.735 186.206 200.695 186.518 200.695C187.27 200.695 187.826 200.879 188.186 201.247C188.554 201.615 188.738 202.187 188.738 202.963V206.215C188.738 206.551 188.59 206.719 188.294 206.719C187.982 206.719 187.826 206.551 187.826 206.215V205.627C187.674 205.971 187.438 206.243 187.118 206.443C186.806 206.643 186.438 206.743 186.014 206.743ZM186.17 206.011C186.65 206.011 187.042 205.847 187.346 205.519C187.65 205.183 187.802 204.759 187.802 204.247V203.887H187.43C186.782 203.887 186.27 203.919 185.894 203.983C185.526 204.039 185.266 204.143 185.114 204.295C184.97 204.439 184.898 204.639 184.898 204.895C184.898 205.223 185.01 205.491 185.234 205.699C185.466 205.907 185.778 206.011 186.17 206.011ZM191.778 208.879C191.594 208.879 191.47 208.807 191.406 208.663C191.342 208.527 191.346 208.371 191.418 208.195L192.15 206.539L189.942 201.403C189.862 201.219 189.858 201.059 189.93 200.923C190.01 200.787 190.158 200.719 190.374 200.719C190.598 200.719 190.762 200.847 190.866 201.103L192.678 205.531L194.502 201.103C194.566 200.959 194.634 200.859 194.706 200.803C194.778 200.747 194.882 200.719 195.018 200.719C195.202 200.719 195.326 200.787 195.39 200.923C195.454 201.059 195.45 201.215 195.378 201.391L192.306 208.495C192.242 208.639 192.17 208.739 192.09 208.795C192.018 208.851 191.914 208.879 191.778 208.879Z" fill="#030229"/>
<path opacity="0.2" d="M180 188.479L179.567 82.4642C179.557 80.0356 181.518 78.0518 183.946 78.0334V78.0334C186.375 78.0149 188.352 79.9687 188.361 82.3973L188.795 188.412L180 188.479Z" fill="#FF8F6B"/>
<path opacity="0.7" d="M135.864 206.712C135.672 206.712 135.54 206.648 135.468 206.52C135.396 206.392 135.404 206.232 135.492 206.04L138.792 198.528C138.92 198.232 139.116 198.084 139.38 198.084C139.5 198.084 139.608 198.12 139.704 198.192C139.808 198.256 139.892 198.368 139.956 198.528L143.268 206.04C143.356 206.232 143.368 206.392 143.304 206.52C143.24 206.648 143.112 206.712 142.92 206.712C142.776 206.712 142.66 206.676 142.572 206.604C142.484 206.524 142.412 206.412 142.356 206.268L141.576 204.468H137.172L136.404 206.268C136.276 206.564 136.096 206.712 135.864 206.712ZM139.368 199.32L137.532 203.64H141.228L139.392 199.32H139.368ZM145.134 208.872C144.814 208.872 144.654 208.708 144.654 208.38V201.204C144.654 200.876 144.81 200.712 145.122 200.712C145.45 200.712 145.614 200.876 145.614 201.204V201.828C145.782 201.476 146.042 201.2 146.394 201C146.746 200.792 147.15 200.688 147.606 200.688C148.126 200.688 148.578 200.812 148.962 201.06C149.354 201.3 149.654 201.648 149.862 202.104C150.078 202.552 150.186 203.088 150.186 203.712C150.186 204.328 150.078 204.864 149.862 205.32C149.654 205.768 149.354 206.116 148.962 206.364C148.578 206.612 148.126 206.736 147.606 206.736C147.158 206.736 146.758 206.636 146.406 206.436C146.054 206.236 145.794 205.96 145.626 205.608V208.38C145.626 208.708 145.462 208.872 145.134 208.872ZM147.402 205.956C147.946 205.956 148.382 205.764 148.71 205.38C149.038 204.988 149.202 204.432 149.202 203.712C149.202 202.984 149.038 202.428 148.71 202.044C148.382 201.66 147.946 201.468 147.402 201.468C146.858 201.468 146.422 201.66 146.094 202.044C145.766 202.428 145.602 202.984 145.602 203.712C145.602 204.432 145.766 204.988 146.094 205.38C146.422 205.764 146.858 205.956 147.402 205.956ZM152.142 206.712C151.814 206.712 151.65 206.544 151.65 206.208V201.204C151.65 200.876 151.806 200.712 152.118 200.712C152.438 200.712 152.598 200.876 152.598 201.204V201.84C152.758 201.472 153.006 201.192 153.342 201C153.678 200.8 154.078 200.692 154.542 200.676C154.798 200.652 154.934 200.78 154.95 201.06C154.974 201.34 154.83 201.496 154.518 201.528L154.326 201.552C153.774 201.6 153.354 201.776 153.066 202.08C152.778 202.376 152.634 202.784 152.634 203.304V206.208C152.634 206.544 152.47 206.712 152.142 206.712Z" fill="#030229"/>
<path opacity="0.2" d="M141 188.737L140.713 118.464C140.703 116.036 142.664 114.052 145.092 114.033V114.033C147.521 114.015 149.498 115.969 149.508 118.397L149.795 188.67L141 188.737Z" fill="#FF8F6B"/>
<path opacity="0.7" d="M97.524 206.917C97.22 206.917 97.068 206.757 97.068 206.437V198.769C97.068 198.449 97.22 198.289 97.524 198.289C97.652 198.289 97.752 198.317 97.824 198.373C97.904 198.421 97.976 198.505 98.04 198.625L101.148 204.481L104.244 198.625C104.308 198.505 104.376 198.421 104.448 198.373C104.52 198.317 104.624 198.289 104.76 198.289C105.056 198.289 105.204 198.449 105.204 198.769V206.437C105.204 206.757 105.052 206.917 104.748 206.917C104.444 206.917 104.292 206.757 104.292 206.437V200.221L101.58 205.321C101.524 205.425 101.464 205.501 101.4 205.549C101.344 205.589 101.26 205.609 101.148 205.609C101.036 205.609 100.948 205.585 100.884 205.537C100.82 205.489 100.764 205.417 100.716 205.321L97.968 200.233V206.437C97.968 206.757 97.82 206.917 97.524 206.917ZM109.014 206.941C108.614 206.941 108.254 206.865 107.934 206.713C107.622 206.553 107.374 206.337 107.19 206.065C107.006 205.793 106.914 205.489 106.914 205.153C106.914 204.729 107.022 204.393 107.238 204.145C107.462 203.897 107.826 203.721 108.33 203.617C108.842 203.505 109.538 203.449 110.418 203.449H110.802V203.077C110.802 202.581 110.698 202.225 110.49 202.009C110.29 201.785 109.966 201.673 109.518 201.673C109.238 201.673 108.954 201.709 108.666 201.781C108.386 201.853 108.094 201.969 107.79 202.129C107.654 202.201 107.538 202.217 107.442 202.177C107.354 202.129 107.29 202.057 107.25 201.961C107.218 201.857 107.218 201.753 107.25 201.649C107.29 201.537 107.37 201.453 107.49 201.397C107.834 201.221 108.178 201.093 108.522 201.013C108.874 200.933 109.206 200.893 109.518 200.893C110.27 200.893 110.826 201.077 111.186 201.445C111.554 201.813 111.738 202.385 111.738 203.161V206.413C111.738 206.749 111.59 206.917 111.294 206.917C110.982 206.917 110.826 206.749 110.826 206.413V205.825C110.674 206.169 110.438 206.441 110.118 206.641C109.806 206.841 109.438 206.941 109.014 206.941ZM109.17 206.209C109.65 206.209 110.042 206.045 110.346 205.717C110.65 205.381 110.802 204.957 110.802 204.445V204.085H110.43C109.782 204.085 109.27 204.117 108.894 204.181C108.526 204.237 108.266 204.341 108.114 204.493C107.97 204.637 107.898 204.837 107.898 205.093C107.898 205.421 108.01 205.689 108.234 205.897C108.466 206.105 108.778 206.209 109.17 206.209ZM114.033 206.917C113.705 206.917 113.541 206.749 113.541 206.413V201.409C113.541 201.081 113.697 200.917 114.009 200.917C114.329 200.917 114.489 201.081 114.489 201.409V202.045C114.649 201.677 114.897 201.397 115.233 201.205C115.569 201.005 115.969 200.897 116.433 200.881C116.689 200.857 116.825 200.985 116.841 201.265C116.865 201.545 116.721 201.701 116.409 201.733L116.217 201.757C115.665 201.805 115.245 201.981 114.957 202.285C114.669 202.581 114.525 202.989 114.525 203.509V206.413C114.525 206.749 114.361 206.917 114.033 206.917Z" fill="#030229"/>
<path opacity="0.2" d="M102 188.941L101.651 103.464C101.641 101.036 103.602 99.0519 106.03 99.0334V99.0334C108.459 99.0149 110.435 100.969 110.445 103.397L110.795 188.875L102 188.941Z" fill="#FF8F6B"/>
<path opacity="0.7" d="M59.572 206.723C59.22 206.723 59.044 206.543 59.044 206.183V198.719C59.044 198.359 59.224 198.179 59.584 198.179H63.94C64.22 198.179 64.36 198.315 64.36 198.587C64.36 198.867 64.22 199.007 63.94 199.007H60.028V201.959H63.688C63.976 201.959 64.12 202.095 64.12 202.367C64.12 202.647 63.976 202.787 63.688 202.787H60.028V206.183C60.028 206.543 59.876 206.723 59.572 206.723ZM67.8916 206.747C66.9716 206.747 66.2436 206.479 65.7076 205.943C65.1716 205.399 64.9036 204.663 64.9036 203.735C64.9036 203.135 65.0236 202.607 65.2636 202.151C65.5036 201.687 65.8316 201.331 66.2476 201.083C66.6716 200.827 67.1596 200.699 67.7116 200.699C68.5036 200.699 69.1236 200.955 69.5716 201.467C70.0196 201.971 70.2436 202.667 70.2436 203.555C70.2436 203.803 70.1036 203.927 69.8236 203.927H65.8516C65.8836 204.591 66.0756 205.099 66.4276 205.451C66.7796 205.795 67.2676 205.967 67.8916 205.967C68.1556 205.967 68.4236 205.935 68.6956 205.871C68.9676 205.799 69.2316 205.675 69.4876 205.499C69.6716 205.379 69.8236 205.355 69.9436 205.427C70.0716 205.499 70.1356 205.611 70.1356 205.763C70.1436 205.907 70.0636 206.035 69.8956 206.147C69.6316 206.339 69.3156 206.487 68.9476 206.591C68.5876 206.695 68.2356 206.747 67.8916 206.747ZM67.7356 201.419C67.1836 201.419 66.7476 201.591 66.4276 201.935C66.1076 202.279 65.9196 202.731 65.8636 203.291H69.4036C69.3796 202.699 69.2236 202.239 68.9356 201.911C68.6556 201.583 68.2556 201.419 67.7356 201.419ZM74.6023 206.747C74.1463 206.747 73.7423 206.647 73.3903 206.447C73.0383 206.239 72.7783 205.955 72.6103 205.595V206.219C72.6103 206.555 72.4503 206.723 72.1303 206.723C71.8103 206.723 71.6503 206.555 71.6503 206.219V198.587C71.6503 198.259 71.8103 198.095 72.1303 198.095C72.4583 198.095 72.6223 198.259 72.6223 198.587V201.815C72.7903 201.471 73.0503 201.199 73.4023 200.999C73.7543 200.799 74.1543 200.699 74.6023 200.699C75.1223 200.699 75.5743 200.823 75.9583 201.071C76.3503 201.311 76.6503 201.659 76.8583 202.115C77.0743 202.563 77.1823 203.099 77.1823 203.723C77.1823 204.339 77.0743 204.875 76.8583 205.331C76.6503 205.779 76.3503 206.127 75.9583 206.375C75.5743 206.623 75.1223 206.747 74.6023 206.747ZM74.3983 205.967C74.9423 205.967 75.3783 205.775 75.7063 205.391C76.0343 204.999 76.1983 204.443 76.1983 203.723C76.1983 202.995 76.0343 202.439 75.7063 202.055C75.3783 201.671 74.9423 201.479 74.3983 201.479C73.8543 201.479 73.4183 201.671 73.0903 202.055C72.7623 202.439 72.5983 202.995 72.5983 203.723C72.5983 204.443 72.7623 204.999 73.0903 205.391C73.4183 205.775 73.8543 205.967 74.3983 205.967Z" fill="#030229"/>
<path d="M64 188.748L63.721 120.464C63.7111 118.036 65.6718 116.052 68.1004 116.033V116.033C70.5289 116.015 72.5057 117.969 72.5156 120.397L72.7946 188.681L64 188.748Z" fill="#FF8F6B"/>
<rect x="46" y="90" width="44" height="21" rx="5" fill="#FF8F6B"/>
<path d="M56.29 104C56.1367 104 56.0267 103.967 55.96 103.9C55.8933 103.827 55.86 103.73 55.86 103.61C55.86 103.47 55.93 103.327 56.07 103.18L58.31 100.78C58.65 100.413 58.8933 100.077 59.04 99.77C59.1933 99.4567 59.27 99.14 59.27 98.82C59.27 98 58.7933 97.59 57.84 97.59C57.2467 97.59 56.7067 97.78 56.22 98.16C56.1133 98.24 56.0167 98.27 55.93 98.25C55.8433 98.2233 55.7767 98.17 55.73 98.09C55.69 98.01 55.6733 97.9233 55.68 97.83C55.6933 97.73 55.75 97.6433 55.85 97.57C56.11 97.3567 56.4233 97.1867 56.79 97.06C57.1567 96.9267 57.53 96.86 57.91 96.86C58.6167 96.86 59.1567 97.0267 59.53 97.36C59.91 97.6867 60.1 98.1533 60.1 98.76C60.1 99.18 59.9967 99.5933 59.79 100C59.59 100.4 59.2733 100.827 58.84 101.28L56.94 103.3H60.08C60.3333 103.3 60.46 103.413 60.46 103.64C60.46 103.88 60.3333 104 60.08 104H56.29ZM62.1461 104.04C61.9794 104.04 61.8461 103.99 61.7461 103.89C61.6461 103.783 61.5961 103.65 61.5961 103.49C61.5961 103.33 61.6461 103.2 61.7461 103.1C61.8461 102.993 61.9794 102.94 62.1461 102.94C62.3128 102.94 62.4428 102.993 62.5361 103.1C62.6361 103.2 62.6861 103.33 62.6861 103.49C62.6861 103.65 62.6361 103.783 62.5361 103.89C62.4428 103.99 62.3128 104.04 62.1461 104.04ZM66.1915 104.09C65.7982 104.09 65.4082 104.033 65.0215 103.92C64.6348 103.807 64.2982 103.64 64.0115 103.42C63.9048 103.34 63.8415 103.253 63.8215 103.16C63.8082 103.06 63.8215 102.97 63.8615 102.89C63.9082 102.81 63.9782 102.76 64.0715 102.74C64.1648 102.713 64.2682 102.737 64.3815 102.81C64.6748 103.003 64.9682 103.143 65.2615 103.23C65.5548 103.317 65.8582 103.36 66.1715 103.36C66.6782 103.36 67.0648 103.25 67.3315 103.03C67.6048 102.803 67.7415 102.473 67.7415 102.04C67.7415 101.627 67.6048 101.313 67.3315 101.1C67.0582 100.887 66.6615 100.78 66.1415 100.78H65.4315C65.1715 100.78 65.0415 100.66 65.0415 100.42C65.0415 100.187 65.1715 100.07 65.4315 100.07H66.0715C66.5248 100.07 66.8815 99.9533 67.1415 99.72C67.4082 99.48 67.5415 99.1533 67.5415 98.74C67.5415 98.3733 67.4182 98.09 67.1715 97.89C66.9315 97.69 66.5882 97.59 66.1415 97.59C65.8348 97.59 65.5482 97.6333 65.2815 97.72C65.0215 97.8067 64.7615 97.9533 64.5015 98.16C64.4015 98.2333 64.3048 98.26 64.2115 98.24C64.1248 98.22 64.0548 98.1733 64.0015 98.1C63.9548 98.02 63.9382 97.93 63.9515 97.83C63.9715 97.73 64.0348 97.64 64.1415 97.56C64.4015 97.34 64.7115 97.17 65.0715 97.05C65.4315 96.9233 65.8048 96.86 66.1915 96.86C66.8715 96.86 67.4015 97.02 67.7815 97.34C68.1682 97.66 68.3615 98.1033 68.3615 98.67C68.3615 99.0633 68.2615 99.41 68.0615 99.71C67.8615 100.003 67.5848 100.217 67.2315 100.35C67.6515 100.463 67.9782 100.673 68.2115 100.98C68.4448 101.28 68.5615 101.653 68.5615 102.1C68.5615 102.707 68.3482 103.19 67.9215 103.55C67.5015 103.91 66.9248 104.09 66.1915 104.09ZM72.1876 104.09C71.7942 104.09 71.4042 104.033 71.0176 103.92C70.6309 103.807 70.2942 103.64 70.0076 103.42C69.9009 103.34 69.8376 103.253 69.8176 103.16C69.8042 103.06 69.8176 102.97 69.8576 102.89C69.9042 102.81 69.9742 102.76 70.0676 102.74C70.1609 102.713 70.2642 102.737 70.3776 102.81C70.6709 103.003 70.9642 103.143 71.2576 103.23C71.5509 103.317 71.8542 103.36 72.1676 103.36C72.6742 103.36 73.0609 103.25 73.3276 103.03C73.6009 102.803 73.7376 102.473 73.7376 102.04C73.7376 101.627 73.6009 101.313 73.3276 101.1C73.0542 100.887 72.6576 100.78 72.1376 100.78H71.4276C71.1676 100.78 71.0376 100.66 71.0376 100.42C71.0376 100.187 71.1676 100.07 71.4276 100.07H72.0676C72.5209 100.07 72.8776 99.9533 73.1376 99.72C73.4042 99.48 73.5376 99.1533 73.5376 98.74C73.5376 98.3733 73.4142 98.09 73.1676 97.89C72.9276 97.69 72.5842 97.59 72.1376 97.59C71.8309 97.59 71.5442 97.6333 71.2776 97.72C71.0176 97.8067 70.7576 97.9533 70.4976 98.16C70.3976 98.2333 70.3009 98.26 70.2076 98.24C70.1209 98.22 70.0509 98.1733 69.9976 98.1C69.9509 98.02 69.9342 97.93 69.9476 97.83C69.9676 97.73 70.0309 97.64 70.1376 97.56C70.3976 97.34 70.7076 97.17 71.0676 97.05C71.4276 96.9233 71.8009 96.86 72.1876 96.86C72.8676 96.86 73.3976 97.02 73.7776 97.34C74.1642 97.66 74.3576 98.1033 74.3576 98.67C74.3576 99.0633 74.2576 99.41 74.0576 99.71C73.8576 100.003 73.5809 100.217 73.2276 100.35C73.6476 100.463 73.9742 100.673 74.2076 100.98C74.4409 101.28 74.5576 101.653 74.5576 102.1C74.5576 102.707 74.3442 103.19 73.9176 103.55C73.4976 103.91 72.9209 104.09 72.1876 104.09ZM76.4237 104.07C76.157 104.07 76.0237 103.93 76.0237 103.65V97.29C76.0237 97.0167 76.157 96.88 76.4237 96.88C76.697 96.88 76.8337 97.0167 76.8337 97.29V101.3H76.8537L78.9037 99.34C78.9903 99.2533 79.0703 99.1867 79.1437 99.14C79.217 99.0933 79.3137 99.07 79.4337 99.07C79.5937 99.07 79.697 99.1333 79.7437 99.26C79.797 99.38 79.7637 99.5033 79.6437 99.63L77.6937 101.48L79.8337 103.49C79.9737 103.623 80.0103 103.753 79.9437 103.88C79.8837 104.007 79.7803 104.07 79.6337 104.07C79.5137 104.07 79.4137 104.047 79.3337 104C79.2603 103.947 79.1737 103.87 79.0737 103.77L76.8537 101.72H76.8337V103.65C76.8337 103.93 76.697 104.07 76.4237 104.07Z" fill="white"/>
<path d="M68 115L74.0622 109H61.9378L68 115Z" fill="#FF8F6B"/>
<path opacity="0.7" d="M20.336 206.36C20.184 206.368 20.068 206.328 19.988 206.24C19.9 206.152 19.856 206.044 19.856 205.916C19.856 205.82 19.888 205.736 19.952 205.664C20.008 205.584 20.1 205.536 20.228 205.52L20.6 205.496C21.008 205.464 21.32 205.324 21.536 205.076C21.752 204.82 21.86 204.472 21.86 204.032V198.248C21.86 197.912 22.024 197.744 22.352 197.744C22.68 197.744 22.844 197.912 22.844 198.248V204.044C22.844 204.74 22.664 205.284 22.304 205.676C21.944 206.06 21.42 206.276 20.732 206.324L20.336 206.36ZM26.6386 206.396C26.2386 206.396 25.8786 206.32 25.5586 206.168C25.2466 206.008 24.9986 205.792 24.8146 205.52C24.6306 205.248 24.5386 204.944 24.5386 204.608C24.5386 204.184 24.6466 203.848 24.8626 203.6C25.0866 203.352 25.4506 203.176 25.9546 203.072C26.4666 202.96 27.1626 202.904 28.0426 202.904H28.4266V202.532C28.4266 202.036 28.3226 201.68 28.1146 201.464C27.9146 201.24 27.5906 201.128 27.1426 201.128C26.8626 201.128 26.5786 201.164 26.2906 201.236C26.0106 201.308 25.7186 201.424 25.4146 201.584C25.2786 201.656 25.1626 201.672 25.0666 201.632C24.9786 201.584 24.9146 201.512 24.8746 201.416C24.8426 201.312 24.8426 201.208 24.8746 201.104C24.9146 200.992 24.9946 200.908 25.1146 200.852C25.4586 200.676 25.8026 200.548 26.1466 200.468C26.4986 200.388 26.8306 200.348 27.1426 200.348C27.8946 200.348 28.4506 200.532 28.8106 200.9C29.1786 201.268 29.3626 201.84 29.3626 202.616V205.868C29.3626 206.204 29.2146 206.372 28.9186 206.372C28.6066 206.372 28.4506 206.204 28.4506 205.868V205.28C28.2986 205.624 28.0626 205.896 27.7426 206.096C27.4306 206.296 27.0626 206.396 26.6386 206.396ZM26.7946 205.664C27.2746 205.664 27.6666 205.5 27.9706 205.172C28.2746 204.836 28.4266 204.412 28.4266 203.9V203.54H28.0546C27.4066 203.54 26.8946 203.572 26.5186 203.636C26.1506 203.692 25.8906 203.796 25.7386 203.948C25.5946 204.092 25.5226 204.292 25.5226 204.548C25.5226 204.876 25.6346 205.144 25.8586 205.352C26.0906 205.56 26.4026 205.664 26.7946 205.664ZM31.6459 206.372C31.3259 206.372 31.1659 206.204 31.1659 205.868V200.864C31.1659 200.536 31.3219 200.372 31.6339 200.372C31.9539 200.372 32.1139 200.536 32.1139 200.864V201.452C32.3059 201.084 32.5779 200.808 32.9299 200.624C33.2819 200.44 33.6779 200.348 34.1179 200.348C35.5019 200.348 36.1939 201.116 36.1939 202.652V205.868C36.1939 206.204 36.0339 206.372 35.7139 206.372C35.3859 206.372 35.2219 206.204 35.2219 205.868V202.712C35.2219 202.168 35.1139 201.772 34.8979 201.524C34.6899 201.268 34.3539 201.14 33.8899 201.14C33.3539 201.14 32.9259 201.308 32.6059 201.644C32.2939 201.972 32.1379 202.412 32.1379 202.964V205.868C32.1379 206.204 31.9739 206.372 31.6459 206.372Z" fill="#030229"/>
<path opacity="0.2" d="M26.1982 188.396L26.018 144.464C26.0081 142.035 27.9687 140.052 30.3973 140.033V140.033C32.8259 140.015 34.8027 141.969 34.8126 144.397L34.9929 188.33L26.1982 188.396Z" fill="#FF8F6B"/>
</svg>
