<svg width="252" height="114" viewBox="0 0 252 114" fill="none" xmlns="http://www.w3.org/2000/svg">
<rect x="138.5" y="0.5" width="113" height="113" rx="6.5" stroke="#F7F7F8"/>
<path d="M186.032 55.636C186.536 55.636 186.988 55.752 187.388 55.984C187.788 56.208 188.096 56.524 188.312 56.932C188.536 57.34 188.648 57.808 188.648 58.336C188.648 58.864 188.528 59.34 188.288 59.764C188.048 60.18 187.716 60.508 187.292 60.748C186.876 60.98 186.4 61.096 185.864 61.096C184.816 61.096 184.008 60.74 183.44 60.028C182.88 59.308 182.6 58.284 182.6 56.956C182.6 56.02 182.732 55.216 182.996 54.544C183.26 53.864 183.64 53.344 184.136 52.984C184.632 52.624 185.22 52.444 185.9 52.444C186.356 52.444 186.812 52.528 187.268 52.696C187.724 52.864 188.112 53.096 188.432 53.392C188.592 53.528 188.672 53.688 188.672 53.872C188.672 54.016 188.632 54.14 188.552 54.244C188.472 54.34 188.376 54.388 188.264 54.388C188.192 54.388 188.124 54.376 188.06 54.352C188.004 54.328 187.936 54.288 187.856 54.232C187.184 53.712 186.544 53.452 185.936 53.452C185.272 53.452 184.756 53.76 184.388 54.376C184.02 54.984 183.836 55.836 183.836 56.932V56.956C184.012 56.548 184.296 56.228 184.688 55.996C185.088 55.756 185.536 55.636 186.032 55.636ZM185.804 60.088C186.3 60.088 186.696 59.932 186.992 59.62C187.296 59.3 187.448 58.88 187.448 58.36C187.448 57.848 187.296 57.436 186.992 57.124C186.696 56.804 186.3 56.644 185.804 56.644C185.3 56.644 184.888 56.804 184.568 57.124C184.256 57.436 184.1 57.848 184.1 58.36C184.1 58.88 184.256 59.3 184.568 59.62C184.88 59.932 185.292 60.088 185.804 60.088ZM192.784 61.096C191.8 61.096 191.048 60.728 190.528 59.992C190.016 59.256 189.76 58.184 189.76 56.776C189.76 55.36 190.016 54.284 190.528 53.548C191.048 52.812 191.8 52.444 192.784 52.444C193.768 52.444 194.516 52.812 195.028 53.548C195.548 54.276 195.808 55.348 195.808 56.764C195.808 58.18 195.548 59.256 195.028 59.992C194.516 60.728 193.768 61.096 192.784 61.096ZM192.784 60.1C193.4 60.1 193.852 59.832 194.14 59.296C194.428 58.76 194.572 57.916 194.572 56.764C194.572 55.612 194.428 54.772 194.14 54.244C193.852 53.708 193.4 53.44 192.784 53.44C192.168 53.44 191.716 53.708 191.428 54.244C191.14 54.772 190.996 55.612 190.996 56.764C190.996 57.908 191.14 58.752 191.428 59.296C191.716 59.832 192.168 60.1 192.784 60.1ZM200.171 60.892C200.059 61.1 199.903 61.204 199.703 61.204C199.583 61.204 199.475 61.16 199.379 61.072C199.291 60.984 199.247 60.872 199.247 60.736C199.247 60.624 199.279 60.516 199.343 60.412L203.831 52.648C203.951 52.44 204.111 52.336 204.311 52.336C204.431 52.336 204.535 52.38 204.623 52.468C204.719 52.556 204.767 52.668 204.767 52.804C204.767 52.916 204.735 53.024 204.671 53.128L200.171 60.892ZM199.055 57.604C198.407 57.604 197.899 57.384 197.531 56.944C197.163 56.504 196.979 55.86 196.979 55.012C196.979 54.164 197.163 53.524 197.531 53.092C197.899 52.652 198.407 52.432 199.055 52.432C199.711 52.432 200.223 52.652 200.591 53.092C200.959 53.524 201.143 54.164 201.143 55.012C201.143 55.868 200.959 56.516 200.591 56.956C200.223 57.388 199.711 57.604 199.055 57.604ZM199.055 56.788C199.407 56.788 199.667 56.648 199.835 56.368C200.003 56.08 200.087 55.628 200.087 55.012C200.087 54.404 200.003 53.96 199.835 53.68C199.667 53.4 199.407 53.26 199.055 53.26C198.703 53.26 198.443 53.4 198.275 53.68C198.115 53.952 198.035 54.396 198.035 55.012C198.035 55.628 198.115 56.08 198.275 56.368C198.443 56.648 198.703 56.788 199.055 56.788ZM204.947 61.084C204.291 61.084 203.779 60.868 203.411 60.436C203.043 59.996 202.859 59.348 202.859 58.492C202.859 57.644 203.043 57.004 203.411 56.572C203.779 56.132 204.291 55.912 204.947 55.912C205.595 55.912 206.103 56.132 206.471 56.572C206.847 57.004 207.035 57.644 207.035 58.492C207.035 59.34 206.851 59.984 206.483 60.424C206.115 60.864 205.603 61.084 204.947 61.084ZM204.947 60.268C205.299 60.268 205.555 60.128 205.715 59.848C205.883 59.56 205.967 59.108 205.967 58.492C205.967 57.884 205.883 57.44 205.715 57.16C205.547 56.872 205.291 56.728 204.947 56.728C204.595 56.728 204.335 56.868 204.167 57.148C203.999 57.428 203.915 57.876 203.915 58.492C203.915 59.108 203.999 59.56 204.167 59.848C204.335 60.128 204.595 60.268 204.947 60.268Z" fill="#030229"/>
<circle cx="194.863" cy="56.8627" r="33.8627" stroke="#5B93FF" stroke-opacity="0.05" stroke-width="6"/>
<path d="M193.606 24.308C193.509 22.0231 195.287 20.0676 197.568 20.2269C202.21 20.5511 206.761 21.752 210.976 23.7793C216.439 26.4067 221.17 30.3408 224.75 35.2332C228.33 40.1256 230.647 45.8253 231.498 51.8274C232.349 57.8295 231.706 63.9488 229.627 69.6432C227.547 75.3376 224.096 80.4313 219.578 84.4732C215.06 88.5151 209.615 91.3803 203.725 92.8152C197.835 94.2501 191.682 94.2102 185.812 92.6992C181.282 91.5332 177.027 89.5191 173.269 86.7762C171.422 85.428 171.322 82.7869 172.869 81.1024C174.416 79.4178 177.021 79.3352 178.912 80.6226C181.634 82.4768 184.666 83.8525 187.876 84.6787C192.428 85.8502 197.198 85.8811 201.765 84.7687C206.331 83.6562 210.553 81.4346 214.056 78.3008C217.559 75.167 220.235 71.2177 221.847 66.8027C223.459 62.3876 223.958 57.6432 223.298 52.9895C222.638 48.3359 220.841 43.9167 218.066 40.1235C215.291 36.3302 211.623 33.28 207.387 31.243C204.4 29.8063 201.195 28.9049 197.918 28.5686C195.643 28.3351 193.704 26.5929 193.606 24.308Z" fill="#5B93FF"/>
<rect x="0.5" y="0.5" width="113" height="113" rx="6.5" stroke="#F7F7F8"/>
<path d="M50.036 52.54C50.212 52.54 50.344 52.588 50.432 52.684C50.528 52.78 50.576 52.904 50.576 53.056C50.576 53.2 50.532 53.352 50.444 53.512L46.52 60.76C46.392 60.984 46.216 61.096 45.992 61.096C45.84 61.096 45.7 61.044 45.572 60.94C45.452 60.828 45.392 60.692 45.392 60.532C45.392 60.436 45.424 60.324 45.488 60.196L49.1 53.56H45.2C45.008 53.56 44.864 53.516 44.768 53.428C44.672 53.34 44.624 53.216 44.624 53.056C44.624 52.712 44.816 52.54 45.2 52.54H50.036ZM54.7953 61.096C53.8113 61.096 53.0593 60.728 52.5393 59.992C52.0273 59.256 51.7713 58.184 51.7713 56.776C51.7713 55.36 52.0273 54.284 52.5393 53.548C53.0593 52.812 53.8113 52.444 54.7953 52.444C55.7793 52.444 56.5273 52.812 57.0393 53.548C57.5593 54.276 57.8193 55.348 57.8193 56.764C57.8193 58.18 57.5593 59.256 57.0393 59.992C56.5273 60.728 55.7793 61.096 54.7953 61.096ZM54.7953 60.1C55.4113 60.1 55.8633 59.832 56.1513 59.296C56.4393 58.76 56.5833 57.916 56.5833 56.764C56.5833 55.612 56.4393 54.772 56.1513 54.244C55.8633 53.708 55.4113 53.44 54.7953 53.44C54.1793 53.44 53.7273 53.708 53.4393 54.244C53.1513 54.772 53.0073 55.612 53.0073 56.764C53.0073 57.908 53.1513 58.752 53.4393 59.296C53.7273 59.832 54.1793 60.1 54.7953 60.1ZM62.1826 60.892C62.0706 61.1 61.9146 61.204 61.7146 61.204C61.5946 61.204 61.4866 61.16 61.3906 61.072C61.3026 60.984 61.2586 60.872 61.2586 60.736C61.2586 60.624 61.2906 60.516 61.3546 60.412L65.8426 52.648C65.9626 52.44 66.1226 52.336 66.3226 52.336C66.4426 52.336 66.5466 52.38 66.6346 52.468C66.7306 52.556 66.7786 52.668 66.7786 52.804C66.7786 52.916 66.7466 53.024 66.6826 53.128L62.1826 60.892ZM61.0666 57.604C60.4186 57.604 59.9106 57.384 59.5426 56.944C59.1746 56.504 58.9906 55.86 58.9906 55.012C58.9906 54.164 59.1746 53.524 59.5426 53.092C59.9106 52.652 60.4186 52.432 61.0666 52.432C61.7226 52.432 62.2346 52.652 62.6026 53.092C62.9706 53.524 63.1546 54.164 63.1546 55.012C63.1546 55.868 62.9706 56.516 62.6026 56.956C62.2346 57.388 61.7226 57.604 61.0666 57.604ZM61.0666 56.788C61.4186 56.788 61.6786 56.648 61.8466 56.368C62.0146 56.08 62.0986 55.628 62.0986 55.012C62.0986 54.404 62.0146 53.96 61.8466 53.68C61.6786 53.4 61.4186 53.26 61.0666 53.26C60.7146 53.26 60.4546 53.4 60.2866 53.68C60.1266 53.952 60.0466 54.396 60.0466 55.012C60.0466 55.628 60.1266 56.08 60.2866 56.368C60.4546 56.648 60.7146 56.788 61.0666 56.788ZM66.9586 61.084C66.3026 61.084 65.7906 60.868 65.4226 60.436C65.0546 59.996 64.8706 59.348 64.8706 58.492C64.8706 57.644 65.0546 57.004 65.4226 56.572C65.7906 56.132 66.3026 55.912 66.9586 55.912C67.6066 55.912 68.1146 56.132 68.4826 56.572C68.8586 57.004 69.0466 57.644 69.0466 58.492C69.0466 59.34 68.8626 59.984 68.4946 60.424C68.1266 60.864 67.6146 61.084 66.9586 61.084ZM66.9586 60.268C67.3106 60.268 67.5666 60.128 67.7266 59.848C67.8946 59.56 67.9786 59.108 67.9786 58.492C67.9786 57.884 67.8946 57.44 67.7266 57.16C67.5586 56.872 67.3026 56.728 66.9586 56.728C66.6066 56.728 66.3466 56.868 66.1786 57.148C66.0106 57.428 65.9266 57.876 65.9266 58.492C65.9266 59.108 66.0106 59.56 66.1786 59.848C66.3466 60.128 66.6066 60.268 66.9586 60.268Z" fill="#030229"/>
<circle cx="56.8627" cy="56.8627" r="33.8627" stroke="#5B93FF" stroke-opacity="0.05" stroke-width="6"/>
<path d="M55.6061 24.308C55.5087 22.0231 57.2868 20.0675 59.5683 20.2269C65.8173 20.6633 71.8767 22.6874 77.1593 26.1381C83.602 30.3465 88.5662 36.4658 91.3556 43.6379C94.1451 50.81 94.6201 58.6753 92.7139 66.1309C90.8077 73.5866 86.616 80.2587 80.7265 85.2119C74.8369 90.165 67.5449 93.1508 59.8729 93.7505C52.2008 94.3503 44.5334 92.5339 37.9457 88.5562C31.3581 84.5784 26.1804 78.6386 23.1389 71.5698C20.645 65.7738 19.6896 59.4571 20.331 53.2258C20.5652 50.9508 22.7966 49.5343 25.031 50.022C27.2653 50.5097 28.6492 52.7192 28.4892 55.0006C28.1716 59.5293 28.9364 64.0898 30.7464 68.2964C33.1046 73.7771 37.119 78.3824 42.2266 81.4665C47.3343 84.5506 53.279 85.9589 59.2274 85.4939C65.1758 85.0289 70.8296 82.7139 75.3959 78.8736C79.9622 75.0332 83.2122 69.8601 84.6901 64.0795C86.168 58.2989 85.7998 52.2007 83.637 46.6399C81.4743 41.0792 77.6254 36.3347 72.6301 33.0718C68.7961 30.5673 64.4343 29.0321 59.9181 28.5685C57.6431 28.335 55.7036 26.5929 55.6061 24.308Z" fill="#FFD66B"/>
</svg>
